<svg width="419" height="225" viewBox="0 0 419 225" fill="none" xmlns="http://www.w3.org/2000/svg">
<g filter="url(#filter0_d_1_794)">
<rect x="36" y="10" width="347" height="174" rx="20" fill="white"/>
<rect x="55" y="60" width="70" height="22" rx="11" fill="#E2E2E2"/>
<path d="M66.49 72.64C66.49 71.98 66.21 71.47 65.56 71.14C66.08 70.87 66.32 70.46 66.32 69.87C66.32 68.82 65.48 67.91 63.92 67.91C62.5 67.91 61.54 68.71 61.37 70.01H62.9C62.99 69.47 63.31 69.15 63.91 69.15C64.46 69.15 64.78 69.44 64.78 69.89C64.78 70.23 64.59 70.66 63.56 70.66H63.21V71.77H63.65C64.68 71.77 64.95 72.14 64.95 72.57C64.95 73.12 64.57 73.42 63.9 73.42C63.23 73.42 62.88 73.07 62.78 72.51H61.24C61.42 73.84 62.43 74.66 63.91 74.66C65.6 74.66 66.49 73.74 66.49 72.64ZM69.3017 74.66C69.8617 74.66 70.3317 74.4 70.6617 73.93V74.5H72.1917V67.3H70.6617V69.65C70.3317 69.19 69.8717 68.95 69.3017 68.95C67.9417 68.95 67.0517 69.98 67.0517 71.81C67.0517 73.58 67.9217 74.66 69.3017 74.66ZM69.6317 73.42C68.9817 73.42 68.6217 72.85 68.6217 71.81C68.6217 70.76 68.9717 70.19 69.6317 70.19C70.3017 70.19 70.6617 70.77 70.6617 71.81C70.6617 72.86 70.3117 73.42 69.6317 73.42ZM75.194 74.5H76.794L76.704 69.5L77.214 71.16L78.464 74.5H79.624L80.864 71.18L81.384 69.49L81.294 74.5H82.894V67.7H80.844L79.364 71.72L79.074 72.73L78.784 71.72L77.304 67.7H75.194V74.5ZM86.43 74.66C88.03 74.66 89.08 73.63 89.08 71.81C89.08 70.05 88.06 68.95 86.43 68.95C84.83 68.95 83.79 69.98 83.79 71.81C83.79 73.58 84.8 74.66 86.43 74.66ZM86.43 73.42C85.74 73.42 85.36 72.85 85.36 71.81C85.36 70.76 85.73 70.19 86.43 70.19C87.13 70.19 87.51 70.77 87.51 71.81C87.51 72.86 87.14 73.42 86.43 73.42ZM91.9091 74.66C92.4691 74.66 92.9391 74.4 93.2691 73.93V74.5H94.7991V67.3H93.2691V69.65C92.9391 69.19 92.4791 68.95 91.9091 68.95C90.5491 68.95 89.6591 69.98 89.6591 71.81C89.6591 73.58 90.5291 74.66 91.9091 74.66ZM92.2391 73.42C91.5891 73.42 91.2291 72.85 91.2291 71.81C91.2291 70.76 91.5791 70.19 92.2391 70.19C92.9091 70.19 93.2691 70.77 93.2691 71.81C93.2691 72.86 92.9191 73.42 92.2391 73.42ZM100.897 72.73H99.2966C99.1366 73.22 98.7966 73.44 98.2966 73.44C97.6366 73.44 97.2366 72.98 97.1566 72.12H100.857V71.78C100.857 70.02 99.8466 68.95 98.2366 68.95C96.6366 68.95 95.5966 69.98 95.5966 71.81C95.5966 73.58 96.6266 74.66 98.2966 74.66C99.6166 74.66 100.617 73.97 100.897 72.73ZM98.2366 70.17C98.7966 70.17 99.1566 70.54 99.2766 71.24H97.1866C97.3066 70.54 97.6666 70.17 98.2366 70.17ZM101.696 74.5H103.226V67.3H101.696V74.5ZM104.254 68.58H105.784V67.3H104.254V68.58ZM104.254 74.5H105.784V69.12H104.254V74.5ZM106.813 74.5H108.343V71.41C108.343 70.72 108.733 70.19 109.343 70.19C109.903 70.19 110.173 70.54 110.173 71.22V74.5H111.703V70.91C111.703 69.58 110.933 68.95 109.903 68.95C109.243 68.95 108.693 69.23 108.343 69.83V69.12H106.813V74.5ZM114.721 74.51C115.301 74.51 115.781 74.27 116.121 73.8V74.7C116.121 75.45 115.751 75.7 115.201 75.7C114.671 75.7 114.261 75.44 114.201 74.96H112.671C112.861 76.27 113.851 76.87 115.221 76.87C116.631 76.87 117.651 76.12 117.651 74.68V69.12H116.121V69.62C115.791 69.18 115.321 68.95 114.721 68.95C113.381 68.95 112.511 69.95 112.511 71.74C112.511 73.45 113.361 74.51 114.721 74.51ZM115.091 73.27C114.431 73.27 114.081 72.72 114.081 71.74C114.081 70.73 114.431 70.19 115.091 70.19C115.761 70.19 116.121 70.74 116.121 71.73C116.121 72.73 115.771 73.27 115.091 73.27Z" fill="#181818"/>
<rect x="130" y="60" width="95" height="22" rx="11" fill="#E2E2E2"/>
<path d="M141.18 69.88C140.89 68.33 139.65 67.54 138.19 67.54C136.14 67.54 134.89 68.91 134.89 71.11C134.89 73.31 136.14 74.66 138.17 74.66C139.62 74.66 140.83 73.87 141.18 72.37H139.48C139.29 73.01 138.79 73.35 138.15 73.35C137.11 73.35 136.53 72.52 136.53 71.11C136.53 69.71 137.12 68.85 138.15 68.85C138.83 68.85 139.31 69.21 139.5 69.88H141.18ZM141.993 74.5H143.523V71.41C143.523 70.72 143.913 70.19 144.523 70.19C145.083 70.19 145.353 70.54 145.353 71.22V74.5H146.883V70.91C146.883 69.58 146.113 68.95 145.083 68.95C144.423 68.95 143.873 69.23 143.523 69.83V67.3H141.993V74.5ZM149.42 70.9C149.49 70.48 149.77 70.19 150.29 70.19C150.88 70.19 151.17 70.5 151.17 71.09V71.21C150.34 71.22 149.67 71.29 148.97 71.52C148.12 71.82 147.7 72.38 147.7 73.11C147.7 74.14 148.46 74.66 149.48 74.66C150.12 74.66 150.76 74.41 151.18 73.83C151.19 74.09 151.22 74.32 151.27 74.5H152.85C152.76 74.22 152.7 73.86 152.7 73.16V71.1C152.7 69.85 151.9 68.95 150.36 68.95C148.98 68.95 148.05 69.69 147.89 70.9H149.42ZM149.23 73.01C149.23 72.51 149.62 72.13 151.17 72.1V72.31C151.17 73.05 150.63 73.6 149.95 73.6C149.5 73.6 149.23 73.37 149.23 73.01ZM153.79 74.5H155.32V71.72C155.32 70.87 155.73 70.35 156.65 70.35C156.89 70.35 157.08 70.37 157.26 70.41V69.12C157.15 69.01 156.95 68.95 156.73 68.95C156.18 68.95 155.66 69.23 155.32 69.87V69.12H153.79V74.5ZM159.333 70.9C159.403 70.48 159.683 70.19 160.203 70.19C160.793 70.19 161.083 70.5 161.083 71.09V71.21C160.252 71.22 159.583 71.29 158.883 71.52C158.033 71.82 157.613 72.38 157.613 73.11C157.613 74.14 158.373 74.66 159.393 74.66C160.033 74.66 160.673 74.41 161.093 73.83C161.103 74.09 161.133 74.32 161.183 74.5H162.763C162.673 74.22 162.613 73.86 162.613 73.16V71.1C162.613 69.85 161.813 68.95 160.273 68.95C158.893 68.95 157.963 69.69 157.803 70.9H159.333ZM159.143 73.01C159.143 72.51 159.533 72.13 161.083 72.1V72.31C161.083 73.05 160.543 73.6 159.863 73.6C159.413 73.6 159.143 73.37 159.143 73.01ZM168.502 71.06C168.312 69.65 167.322 68.95 166.072 68.95C164.492 68.95 163.472 69.98 163.472 71.81C163.472 73.57 164.472 74.66 166.082 74.66C167.332 74.66 168.302 74.01 168.532 72.66H167.002C166.892 73.16 166.572 73.42 166.112 73.42C165.412 73.42 165.042 72.85 165.042 71.81C165.042 70.76 165.392 70.19 166.072 70.19C166.512 70.19 166.872 70.43 166.972 71.06H168.502ZM169.507 72.75C169.507 74 170.057 74.66 171.207 74.66C171.617 74.66 171.957 74.6 172.127 74.52V73.37H171.837C171.177 73.37 171.037 73.08 171.037 72.56V70.28H172.137V69.12H171.037V67.87H169.507V69.12H168.847V70.28H169.507V72.75ZM177.893 72.73H176.293C176.133 73.22 175.793 73.44 175.293 73.44C174.633 73.44 174.233 72.98 174.153 72.12H177.853V71.78C177.853 70.02 176.843 68.95 175.233 68.95C173.633 68.95 172.593 69.98 172.593 71.81C172.593 73.58 173.623 74.66 175.293 74.66C176.613 74.66 177.613 73.97 177.893 72.73ZM175.233 70.17C175.793 70.17 176.153 70.54 176.273 71.24H174.183C174.303 70.54 174.663 70.17 175.233 70.17ZM178.692 74.5H180.222V71.72C180.222 70.87 180.632 70.35 181.552 70.35C181.792 70.35 181.982 70.37 182.162 70.41V69.12C182.052 69.01 181.852 68.95 181.632 68.95C181.082 68.95 180.562 69.23 180.222 69.87V69.12H178.692V74.5ZM184.749 74.5H186.349V71.98H187.409C187.989 71.98 188.199 72.11 188.329 72.72L188.709 74.5H190.379L189.869 72.42C189.749 71.92 189.559 71.58 189.249 71.35C189.789 71.03 190.099 70.51 190.099 69.76C190.099 68.5 189.119 67.7 187.529 67.7H184.749V74.5ZM187.499 68.97C188.119 68.97 188.449 69.32 188.449 69.85C188.449 70.38 188.129 70.74 187.459 70.74H186.349V68.97H187.499ZM191.143 68.58H192.673V67.3H191.143V68.58ZM191.143 74.5H192.673V69.12H191.143V74.5ZM195.682 74.51C196.262 74.51 196.742 74.27 197.082 73.8V74.7C197.082 75.45 196.712 75.7 196.162 75.7C195.632 75.7 195.222 75.44 195.162 74.96H193.632C193.822 76.27 194.812 76.87 196.182 76.87C197.592 76.87 198.612 76.12 198.612 74.68V69.12H197.082V69.62C196.752 69.18 196.282 68.95 195.682 68.95C194.342 68.95 193.472 69.95 193.472 71.74C193.472 73.45 194.322 74.51 195.682 74.51ZM196.052 73.27C195.392 73.27 195.042 72.72 195.042 71.74C195.042 70.73 195.392 70.19 196.052 70.19C196.722 70.19 197.082 70.74 197.082 71.73C197.082 72.73 196.732 73.27 196.052 73.27ZM201.629 74.51C202.209 74.51 202.689 74.27 203.029 73.8V74.7C203.029 75.45 202.659 75.7 202.109 75.7C201.579 75.7 201.169 75.44 201.109 74.96H199.579C199.769 76.27 200.759 76.87 202.129 76.87C203.539 76.87 204.559 76.12 204.559 74.68V69.12H203.029V69.62C202.699 69.18 202.229 68.95 201.629 68.95C200.289 68.95 199.419 69.95 199.419 71.74C199.419 73.45 200.269 74.51 201.629 74.51ZM201.999 73.27C201.339 73.27 200.989 72.72 200.989 71.74C200.989 70.73 201.339 70.19 201.999 70.19C202.669 70.19 203.029 70.74 203.029 71.73C203.029 72.73 202.679 73.27 201.999 73.27ZM205.596 68.58H207.126V67.3H205.596V68.58ZM205.596 74.5H207.126V69.12H205.596V74.5ZM208.155 74.5H209.685V71.41C209.685 70.72 210.075 70.19 210.685 70.19C211.245 70.19 211.515 70.54 211.515 71.22V74.5H213.045V70.91C213.045 69.58 212.275 68.95 211.245 68.95C210.585 68.95 210.035 69.23 209.685 69.83V69.12H208.155V74.5ZM216.062 74.51C216.643 74.51 217.123 74.27 217.463 73.8V74.7C217.463 75.45 217.093 75.7 216.543 75.7C216.013 75.7 215.603 75.44 215.543 74.96H214.013C214.203 76.27 215.193 76.87 216.563 76.87C217.973 76.87 218.993 76.12 218.993 74.68V69.12H217.463V69.62C217.133 69.18 216.663 68.95 216.062 68.95C214.723 68.95 213.853 69.95 213.853 71.74C213.853 73.45 214.703 74.51 216.062 74.51ZM216.433 73.27C215.773 73.27 215.423 72.72 215.423 71.74C215.423 70.73 215.773 70.19 216.433 70.19C217.103 70.19 217.463 70.74 217.463 71.73C217.463 72.73 217.113 73.27 216.433 73.27Z" fill="#181818"/>
<path d="M179.753 47.3021C179.753 45.5054 178.692 44.0482 176.343 44.0482C175.721 44.0482 175.226 44.1897 174.787 44.416L174.886 42.9164H179.243V41.2612H173.103L172.821 46.2976L174.773 46.4815C175.028 46.0854 175.466 45.7742 176.145 45.7742C177.164 45.7742 177.588 46.4674 177.588 47.3304C177.588 48.2641 177.093 48.83 176.173 48.83C175.296 48.83 174.773 48.3914 174.646 47.6558H172.481C172.736 49.4666 174.122 50.5843 176.188 50.5843C178.494 50.5843 179.753 49.1554 179.753 47.3021ZM180.83 50.3579H183.094V48.0802H180.83V50.3579ZM187.845 50.5843C190.152 50.5843 191.538 48.8441 191.538 45.8166C191.538 42.8174 190.166 41.0348 187.845 41.0348C185.525 41.0348 184.153 42.7891 184.153 45.8166C184.153 48.8017 185.511 50.5843 187.845 50.5843ZM187.845 48.7876C186.898 48.7876 186.36 47.7124 186.36 45.8166C186.36 43.8784 186.883 42.8315 187.845 42.8315C188.793 42.8315 189.317 43.8926 189.317 45.8166C189.317 47.7406 188.793 48.7876 187.845 48.7876ZM212.488 50.3721H218.119V48.7168H216.435V41.2612H214.539V41.3743C214.539 41.8978 214.228 42.1524 213.139 42.1524H212.488V43.7228H214.158V48.7168H212.488V50.3721ZM226.878 47.3021C226.878 45.5054 225.817 44.0482 223.469 44.0482C222.846 44.0482 222.351 44.1897 221.913 44.416L222.012 42.9164H226.369V41.2612H220.229L219.946 46.2976L221.899 46.4815C222.153 46.0854 222.592 45.7742 223.271 45.7742C224.289 45.7742 224.714 46.4674 224.714 47.3304C224.714 48.2641 224.219 48.83 223.299 48.83C222.422 48.83 221.899 48.3914 221.771 47.6558H219.607C219.861 49.4666 221.248 50.5843 223.313 50.5843C225.619 50.5843 226.878 49.1554 226.878 47.3021Z" fill="#1C1C25" fill-opacity="0.5"/>
<path d="M210.448 43.5666L206.207 42.9749L204.311 39.2854C204.259 39.1844 204.174 39.1026 204.069 39.0529C203.805 38.9279 203.484 39.0321 203.352 39.2854L201.456 42.9749L197.215 43.5666C197.098 43.5826 196.991 43.6355 196.91 43.7157C196.811 43.8133 196.756 43.9446 196.758 44.0808C196.76 44.217 196.818 44.3469 196.92 44.442L199.988 47.3137L199.263 51.3688C199.246 51.4631 199.257 51.5601 199.295 51.6488C199.332 51.7375 199.395 51.8144 199.475 51.8706C199.556 51.9269 199.652 51.9603 199.751 51.9671C199.851 51.9739 199.95 51.9538 200.038 51.9092L203.832 49.9947L207.625 51.9092C207.729 51.9621 207.849 51.9797 207.964 51.9605C208.255 51.9124 208.45 51.6478 208.4 51.3688L207.675 47.3137L210.744 44.442C210.827 44.3635 210.882 44.2608 210.899 44.1486C210.944 43.868 210.74 43.6082 210.448 43.5666Z" fill="#FFBE2E"/>
<path d="M64.808 45.856V39.12H63.336V45.856C63.336 47.808 62.264 49.008 60.472 49.008C58.68 49.008 57.608 47.824 57.608 45.856V39.12H56.12V45.856C56.12 48.544 57.784 50.192 60.472 50.192C63.144 50.192 64.808 48.544 64.808 45.856ZM67.1699 50H68.6419V39.12H67.1699V50ZM69.8906 50H71.2986L75.2986 39.12H73.8906L69.8906 50ZM85.1049 45.856V39.12H83.6329V45.856C83.6329 47.808 82.5609 49.008 80.7689 49.008C78.9769 49.008 77.9049 47.824 77.9049 45.856V39.12H76.4169V45.856C76.4169 48.544 78.0809 50.192 80.7689 50.192C83.4409 50.192 85.1049 48.544 85.1049 45.856ZM94.4748 50H96.1868L92.2348 44.352L95.8988 39.12H94.3148L91.9628 42.416L91.4668 43.2L90.9708 42.416L88.5707 39.12H86.8588L90.5388 44.384L86.5708 50H88.1548L90.8588 46.224L91.3068 45.536L91.7548 46.224L94.4748 50ZM100.982 50H104.534C107.91 50 110.022 47.984 110.022 44.576C110.022 41.168 107.91 39.12 104.534 39.12H100.982V50ZM104.534 48.8H102.454V40.32H104.534C107.03 40.32 108.518 41.888 108.518 44.576C108.518 47.232 107.03 48.8 104.534 48.8ZM119.355 47.232H117.883C117.579 48.4 116.731 48.976 115.531 48.976C113.995 48.976 113.099 47.904 113.019 46H119.291V45.648C119.291 42.944 117.851 41.296 115.451 41.296C113.067 41.296 111.579 42.88 111.579 45.76C111.579 48.528 113.067 50.192 115.531 50.192C117.467 50.192 118.891 49.216 119.355 47.232ZM115.451 42.512C116.779 42.512 117.627 43.376 117.819 44.944H113.067C113.275 43.36 114.091 42.512 115.451 42.512ZM122.207 43.68C122.207 42.976 122.815 42.448 123.871 42.448C125.071 42.448 125.807 42.944 126.015 44.272H127.423C127.151 42.16 125.791 41.296 123.951 41.296C121.871 41.296 120.863 42.48 120.863 43.776C120.863 47.296 126.319 45.376 126.319 47.696C126.319 48.496 125.647 49.072 124.367 49.072C123.055 49.072 122.175 48.416 121.983 47.232H120.575C120.895 49.232 122.303 50.192 124.319 50.192C126.319 50.192 127.727 49.184 127.727 47.6C127.727 44.096 122.207 46.048 122.207 43.68ZM129.401 40.368H130.809V38.48H129.401V40.368ZM129.401 50H130.809V41.504H129.401V50ZM136.066 50.064C137.154 50.064 138.018 49.648 138.61 48.848V50.304C138.61 51.888 137.778 52.56 136.53 52.56C135.298 52.56 134.418 51.952 134.242 50.832H132.834C133.138 52.768 134.546 53.728 136.546 53.728C138.498 53.728 140.018 52.624 140.018 50.256V41.504H138.61V42.432C138.05 41.696 137.202 41.296 136.066 41.296C133.938 41.296 132.61 42.848 132.61 45.696C132.61 48.416 133.906 50.064 136.066 50.064ZM136.322 48.848C134.866 48.848 134.05 47.696 134.05 45.696C134.05 43.632 134.85 42.512 136.322 42.512C137.778 42.512 138.61 43.68 138.61 45.68C138.61 47.728 137.81 48.848 136.322 48.848ZM142.276 50H143.684V44.976C143.684 43.76 144.516 42.496 145.924 42.496C147.204 42.496 147.78 43.328 147.78 44.608V50H149.188V44.32C149.188 42.352 148.116 41.296 146.308 41.296C145.188 41.296 144.26 41.76 143.684 42.656V41.504H142.276V50ZM158.777 47.232H157.305C157.001 48.4 156.153 48.976 154.953 48.976C153.417 48.976 152.521 47.904 152.441 46H158.713V45.648C158.713 42.944 157.273 41.296 154.873 41.296C152.489 41.296 151.001 42.88 151.001 45.76C151.001 48.528 152.489 50.192 154.953 50.192C156.889 50.192 158.312 49.216 158.777 47.232ZM154.873 42.512C156.201 42.512 157.049 43.376 157.241 44.944H152.489C152.697 43.36 153.513 42.512 154.873 42.512ZM160.589 50H161.997V45.248C161.997 43.712 162.733 42.656 164.429 42.656C164.765 42.656 165.069 42.688 165.309 42.768V41.504C165.149 41.376 164.845 41.296 164.509 41.296C163.485 41.296 162.573 41.776 161.997 42.816V41.504H160.589V50Z" fill="#181818"/>
<path d="M56.248 132H57.72V121.12H56.248V132ZM64.5879 126.272C64.7639 125.184 65.4199 124.512 66.6359 124.512C68.0919 124.512 68.7319 125.264 68.7319 126.64V126.832C67.0999 126.848 65.9319 126.944 64.7799 127.328C63.5319 127.744 62.8919 128.592 62.8919 129.76C62.8919 131.376 64.0759 132.192 65.8359 132.192C66.8599 132.192 68.0119 131.728 68.7319 130.656C68.7479 131.168 68.7959 131.664 68.9559 132H70.4439C70.2199 131.536 70.1399 130.928 70.1399 129.952V126.608C70.1399 124.624 69.0359 123.296 66.7639 123.296C64.6839 123.296 63.4519 124.4 63.1799 126.272H64.5879ZM64.3319 129.728C64.3319 128.688 65.1159 127.92 68.7319 127.888V128.288C68.7319 129.744 67.5479 130.976 65.9799 130.976C64.9879 130.976 64.3319 130.512 64.3319 129.728ZM72.4481 132H73.8561V126.976C73.8561 125.76 74.6241 124.496 75.9041 124.496C77.0561 124.496 77.5681 125.328 77.5681 126.608V132H78.9761V126.976C78.9761 125.76 79.7441 124.496 81.0241 124.496C82.1761 124.496 82.6881 125.328 82.6881 126.608V132H84.0961V126.32C84.0961 124.352 83.0561 123.296 81.3281 123.296C80.1921 123.296 79.2641 123.808 78.7041 124.8C78.3041 123.808 77.4561 123.296 76.2881 123.296C75.2481 123.296 74.4001 123.728 73.8561 124.592V123.504H72.4481V132ZM96.9019 132H98.6779L101.222 123.504H99.7659L98.0219 130.096L97.8459 130.928L97.6539 130.096L95.7179 123.504H94.1979L92.2619 130.096L92.0539 130.96L91.8459 130.096L90.1019 123.504H88.5819L91.1099 132H92.8539L94.6779 125.648L94.8699 124.688L95.0619 125.648L96.9019 132ZM105.873 132.192C108.257 132.192 109.761 130.624 109.761 127.76C109.761 124.992 108.305 123.296 105.873 123.296C103.489 123.296 101.985 124.88 101.985 127.76C101.985 130.528 103.441 132.192 105.873 132.192ZM105.873 130.976C104.305 130.976 103.425 129.808 103.425 127.76C103.425 125.664 104.289 124.512 105.873 124.512C107.441 124.512 108.321 125.696 108.321 127.76C108.321 129.84 107.457 130.976 105.873 130.976ZM111.573 132H112.981V127.248C112.981 125.712 113.717 124.656 115.413 124.656C115.749 124.656 116.053 124.688 116.293 124.768V123.504C116.133 123.376 115.829 123.296 115.493 123.296C114.469 123.296 113.557 123.776 112.981 124.816V123.504H111.573V132ZM117.542 132H118.95V127.664L122.774 132H124.566L120.47 127.296L124.342 123.504H122.614L118.95 127.152V120.48H117.542V132ZM125.933 122.368H127.341V120.48H125.933V122.368ZM125.933 132H127.341V123.504H125.933V132ZM129.573 132H130.981V126.976C130.981 125.76 131.813 124.496 133.221 124.496C134.501 124.496 135.077 125.328 135.077 126.608V132H136.485V126.32C136.485 124.352 135.413 123.296 133.605 123.296C132.485 123.296 131.557 123.76 130.981 124.656V123.504H129.573V132ZM141.753 132.064C142.841 132.064 143.705 131.648 144.297 130.848V132.304C144.297 133.888 143.465 134.56 142.217 134.56C140.985 134.56 140.105 133.952 139.929 132.832H138.521C138.825 134.768 140.233 135.728 142.233 135.728C144.185 135.728 145.705 134.624 145.705 132.256V123.504H144.297V124.432C143.737 123.696 142.889 123.296 141.753 123.296C139.625 123.296 138.297 124.848 138.297 127.696C138.297 130.416 139.593 132.064 141.753 132.064ZM142.009 130.848C140.553 130.848 139.737 129.696 139.737 127.696C139.737 125.632 140.537 124.512 142.009 124.512C143.465 124.512 144.297 125.68 144.297 127.68C144.297 129.728 143.497 130.848 142.009 130.848ZM151.167 122.368H152.575V120.48H151.167V122.368ZM151.167 132H152.575V123.504H151.167V132ZM154.808 132H156.216V126.976C156.216 125.76 157.048 124.496 158.456 124.496C159.736 124.496 160.312 125.328 160.312 126.608V132H161.72V126.32C161.72 124.352 160.648 123.296 158.84 123.296C157.72 123.296 156.792 123.76 156.216 124.656V123.504H154.808V132ZM170.351 132.192C171.359 132.192 172.175 131.728 172.735 130.928V132H174.143V120.48H172.735V124.496C172.175 123.712 171.359 123.296 170.351 123.296C168.127 123.296 166.735 124.88 166.735 127.76C166.735 130.528 168.095 132.192 170.351 132.192ZM170.447 130.976C169.007 130.976 168.175 129.808 168.175 127.76C168.175 125.664 168.975 124.512 170.447 124.512C171.903 124.512 172.735 125.696 172.735 127.76C172.735 129.84 171.935 130.976 170.447 130.976ZM183.73 129.232H182.258C181.954 130.4 181.106 130.976 179.906 130.976C178.37 130.976 177.474 129.904 177.394 128H183.666V127.648C183.666 124.944 182.226 123.296 179.826 123.296C177.442 123.296 175.954 124.88 175.954 127.76C175.954 130.528 177.442 132.192 179.906 132.192C181.842 132.192 183.266 131.216 183.73 129.232ZM179.826 124.512C181.154 124.512 182.002 125.376 182.194 126.944H177.442C177.65 125.36 178.466 124.512 179.826 124.512ZM186.582 125.68C186.582 124.976 187.19 124.448 188.246 124.448C189.446 124.448 190.182 124.944 190.39 126.272H191.798C191.526 124.16 190.166 123.296 188.326 123.296C186.246 123.296 185.238 124.48 185.238 125.776C185.238 129.296 190.694 127.376 190.694 129.696C190.694 130.496 190.022 131.072 188.742 131.072C187.43 131.072 186.55 130.416 186.358 129.232H184.95C185.27 131.232 186.678 132.192 188.694 132.192C190.694 132.192 192.102 131.184 192.102 129.6C192.102 126.096 186.582 128.048 186.582 125.68ZM193.776 122.368H195.184V120.48H193.776V122.368ZM193.776 132H195.184V123.504H193.776V132ZM200.441 132.064C201.529 132.064 202.393 131.648 202.985 130.848V132.304C202.985 133.888 202.153 134.56 200.905 134.56C199.673 134.56 198.793 133.952 198.617 132.832H197.209C197.513 134.768 198.921 135.728 200.921 135.728C202.873 135.728 204.393 134.624 204.393 132.256V123.504H202.985V124.432C202.425 123.696 201.577 123.296 200.441 123.296C198.313 123.296 196.985 124.848 196.985 127.696C196.985 130.416 198.281 132.064 200.441 132.064ZM200.697 130.848C199.241 130.848 198.425 129.696 198.425 127.696C198.425 125.632 199.225 124.512 200.697 124.512C202.153 124.512 202.985 125.68 202.985 127.68C202.985 129.728 202.185 130.848 200.697 130.848ZM206.651 132H208.059V126.976C208.059 125.76 208.891 124.496 210.299 124.496C211.579 124.496 212.155 125.328 212.155 126.608V132H213.563V126.32C213.563 124.352 212.491 123.296 210.683 123.296C209.563 123.296 208.635 123.76 208.059 124.656V123.504H206.651V132ZM219.011 122.368H220.419V120.48H219.011V122.368ZM219.011 132H220.419V123.504H219.011V132ZM222.651 132H224.059V126.976C224.059 125.76 224.891 124.496 226.299 124.496C227.579 124.496 228.155 125.328 228.155 126.608V132H229.563V126.32C229.563 124.352 228.491 123.296 226.683 123.296C225.563 123.296 224.635 123.76 224.059 124.656V123.504H222.651V132ZM234.992 132.192C236 132.192 236.816 131.728 237.376 130.928V132H238.784V120.48H237.376V124.496C236.816 123.712 236 123.296 234.992 123.296C232.768 123.296 231.376 124.88 231.376 127.76C231.376 130.528 232.736 132.192 234.992 132.192ZM235.088 130.976C233.648 130.976 232.816 129.808 232.816 127.76C232.816 125.664 233.616 124.512 235.088 124.512C236.544 124.512 237.376 125.696 237.376 127.76C237.376 129.84 236.576 130.976 235.088 130.976ZM246.434 128.528C246.434 129.744 245.618 130.992 244.242 130.992C242.994 130.992 242.434 130.176 242.434 128.896V123.504H241.026V129.184C241.026 131.152 242.082 132.192 243.858 132.192C244.962 132.192 245.858 131.744 246.434 130.848V132H247.842V123.504H246.434V128.528ZM251.129 125.68C251.129 124.976 251.737 124.448 252.793 124.448C253.993 124.448 254.729 124.944 254.937 126.272H256.345C256.073 124.16 254.713 123.296 252.873 123.296C250.793 123.296 249.785 124.48 249.785 125.776C249.785 129.296 255.241 127.376 255.241 129.696C255.241 130.496 254.569 131.072 253.289 131.072C251.977 131.072 251.097 130.416 250.905 129.232H249.497C249.817 131.232 251.225 132.192 253.241 132.192C255.241 132.192 256.649 131.184 256.649 129.6C256.649 126.096 251.129 128.048 251.129 125.68ZM258.515 129.552C258.515 131.344 259.267 132.192 260.851 132.192C261.251 132.192 261.603 132.144 261.763 132.064V131.056H261.475C260.227 131.056 259.923 130.576 259.923 129.552V124.624H261.795V123.504H259.923V121.552H258.515V123.504H257.331V124.624H258.515V129.552ZM263.136 132H264.544V127.248C264.544 125.712 265.28 124.656 266.976 124.656C267.312 124.656 267.616 124.688 267.856 124.768V123.504C267.696 123.376 267.392 123.296 267.056 123.296C266.032 123.296 265.12 123.776 264.544 124.816V123.504H263.136V132ZM269.488 135.712C270.96 135.712 271.52 135.168 272.368 133.12L276.336 123.504H274.896L272.656 129.12L272.272 130.256L271.888 129.12L269.584 123.504H268.064L271.536 131.728L271.248 132.384C270.416 134.288 270.128 134.496 269.088 134.496H268.656V135.584C268.832 135.632 269.168 135.712 269.488 135.712ZM279.705 124.624H280.889V132H282.297V124.624H283.977V123.504H282.297V122.928C282.297 121.904 282.601 121.424 283.833 121.424H283.977V120.416C283.833 120.352 283.545 120.288 283.193 120.288C281.625 120.288 280.889 121.136 280.889 122.928V123.504H279.705V124.624ZM285.104 132H286.512V127.248C286.512 125.712 287.248 124.656 288.944 124.656C289.28 124.656 289.584 124.688 289.824 124.768V123.504C289.664 123.376 289.36 123.296 289.024 123.296C288 123.296 287.088 123.776 286.512 124.816V123.504H285.104V132ZM294.373 132.192C296.757 132.192 298.261 130.624 298.261 127.76C298.261 124.992 296.805 123.296 294.373 123.296C291.989 123.296 290.485 124.88 290.485 127.76C290.485 130.528 291.941 132.192 294.373 132.192ZM294.373 130.976C292.805 130.976 291.925 129.808 291.925 127.76C291.925 125.664 292.789 124.512 294.373 124.512C295.941 124.512 296.821 125.696 296.821 127.76C296.821 129.84 295.957 130.976 294.373 130.976ZM300.073 132H301.481V126.976C301.481 125.76 302.249 124.496 303.529 124.496C304.681 124.496 305.193 125.328 305.193 126.608V132H306.601V126.976C306.601 125.76 307.369 124.496 308.649 124.496C309.801 124.496 310.313 125.328 310.313 126.608V132H311.721V126.32C311.721 124.352 310.681 123.296 308.953 123.296C307.817 123.296 306.889 123.808 306.329 124.8C305.929 123.808 305.081 123.296 303.913 123.296C302.873 123.296 302.025 123.728 301.481 124.592V123.504H300.073V132ZM324.559 129.136C324.559 128.032 324.095 127.104 322.767 126.608C323.839 126.16 324.255 125.408 324.255 124.448C324.255 122.768 323.055 121.52 320.735 121.52C318.527 121.52 317.199 122.704 316.927 124.64H318.351C318.543 123.456 319.279 122.736 320.719 122.736C322.095 122.736 322.815 123.376 322.815 124.464C322.815 125.184 322.447 126.128 320.159 126.128H319.823V127.248H320.239C322.655 127.248 323.119 128.192 323.119 129.072C323.119 130.272 322.287 130.976 320.687 130.976C319.135 130.976 318.335 130.224 318.143 129.04H316.703C316.991 131.008 318.415 132.192 320.703 132.192C323.247 132.192 324.559 130.88 324.559 129.136ZM326.754 127.472H329.314V130.032H330.434V127.472H332.978V126.352H330.434V123.808H329.314V126.352H326.754V127.472ZM56.504 155.712C57.976 155.712 58.536 155.168 59.384 153.12L63.352 143.504H61.912L59.672 149.12L59.288 150.256L58.904 149.12L56.6 143.504H55.08L58.552 151.728L58.264 152.384C57.432 154.288 57.144 154.496 56.104 154.496H55.672V155.584C55.848 155.632 56.184 155.712 56.504 155.712ZM71.8234 149.232H70.3514C70.0474 150.4 69.1994 150.976 67.9994 150.976C66.4634 150.976 65.5674 149.904 65.4874 148H71.7594V147.648C71.7594 144.944 70.3194 143.296 67.9194 143.296C65.5354 143.296 64.0474 144.88 64.0474 147.76C64.0474 150.528 65.5354 152.192 67.9994 152.192C69.9354 152.192 71.3594 151.216 71.8234 149.232ZM67.9194 144.512C69.2474 144.512 70.0954 145.376 70.2874 146.944H65.5354C65.7434 145.36 66.5594 144.512 67.9194 144.512ZM74.9316 146.272C75.1076 145.184 75.7636 144.512 76.9796 144.512C78.4356 144.512 79.0756 145.264 79.0756 146.64V146.832C77.4436 146.848 76.2756 146.944 75.1236 147.328C73.8756 147.744 73.2356 148.592 73.2356 149.76C73.2356 151.376 74.4196 152.192 76.1796 152.192C77.2036 152.192 78.3556 151.728 79.0756 150.656C79.0916 151.168 79.1396 151.664 79.2996 152H80.7876C80.5636 151.536 80.4836 150.928 80.4836 149.952V146.608C80.4836 144.624 79.3796 143.296 77.1076 143.296C75.0276 143.296 73.7956 144.4 73.5236 146.272H74.9316ZM74.6756 149.728C74.6756 148.688 75.4596 147.92 79.0756 147.888V148.288C79.0756 149.744 77.8916 150.976 76.3236 150.976C75.3316 150.976 74.6756 150.512 74.6756 149.728ZM82.7919 152H84.1999V147.248C84.1999 145.712 84.9359 144.656 86.6319 144.656C86.9679 144.656 87.2719 144.688 87.5119 144.768V143.504C87.3519 143.376 87.0479 143.296 86.7119 143.296C85.6879 143.296 84.7759 143.776 84.1999 144.816V143.504H82.7919V152ZM89.8006 145.68C89.8006 144.976 90.4086 144.448 91.4646 144.448C92.6646 144.448 93.4006 144.944 93.6086 146.272H95.0166C94.7446 144.16 93.3846 143.296 91.5446 143.296C89.4646 143.296 88.4566 144.48 88.4566 145.776C88.4566 149.296 93.9126 147.376 93.9126 149.696C93.9126 150.496 93.2406 151.072 91.9606 151.072C90.6486 151.072 89.7686 150.416 89.5766 149.232H88.1686C88.4886 151.232 89.8966 152.192 91.9126 152.192C93.9126 152.192 95.3206 151.184 95.3206 149.6C95.3206 146.096 89.8006 148.048 89.8006 145.68ZM101.494 146.272C101.67 145.184 102.326 144.512 103.542 144.512C104.998 144.512 105.638 145.264 105.638 146.64V146.832C104.006 146.848 102.838 146.944 101.686 147.328C100.438 147.744 99.7981 148.592 99.7981 149.76C99.7981 151.376 100.982 152.192 102.742 152.192C103.766 152.192 104.918 151.728 105.638 150.656C105.654 151.168 105.702 151.664 105.862 152H107.35C107.126 151.536 107.046 150.928 107.046 149.952V146.608C107.046 144.624 105.942 143.296 103.67 143.296C101.59 143.296 100.358 144.4 100.086 146.272H101.494ZM101.238 149.728C101.238 148.688 102.022 147.92 105.638 147.888V148.288C105.638 149.744 104.454 150.976 102.886 150.976C101.894 150.976 101.238 150.512 101.238 149.728ZM110.394 145.68C110.394 144.976 111.002 144.448 112.058 144.448C113.258 144.448 113.994 144.944 114.202 146.272H115.61C115.338 144.16 113.978 143.296 112.138 143.296C110.058 143.296 109.05 144.48 109.05 145.776C109.05 149.296 114.506 147.376 114.506 149.696C114.506 150.496 113.834 151.072 112.554 151.072C111.242 151.072 110.362 150.416 110.17 149.232H108.762C109.082 151.232 110.49 152.192 112.506 152.192C114.506 152.192 115.914 151.184 115.914 149.6C115.914 146.096 110.394 148.048 110.394 145.68ZM122.088 146.272C122.264 145.184 122.92 144.512 124.136 144.512C125.592 144.512 126.232 145.264 126.232 146.64V146.832C124.6 146.848 123.432 146.944 122.28 147.328C121.032 147.744 120.392 148.592 120.392 149.76C120.392 151.376 121.576 152.192 123.336 152.192C124.36 152.192 125.512 151.728 126.232 150.656C126.248 151.168 126.296 151.664 126.456 152H127.944C127.72 151.536 127.64 150.928 127.64 149.952V146.608C127.64 144.624 126.536 143.296 124.264 143.296C122.184 143.296 120.952 144.4 120.68 146.272H122.088ZM121.832 149.728C121.832 148.688 122.616 147.92 126.232 147.888V148.288C126.232 149.744 125.048 150.976 123.48 150.976C122.488 150.976 121.832 150.512 121.832 149.728ZM136.335 152.192C137.343 152.192 138.159 151.728 138.719 150.928V152H140.127V140.48H138.719V144.496C138.159 143.712 137.343 143.296 136.335 143.296C134.111 143.296 132.719 144.88 132.719 147.76C132.719 150.528 134.079 152.192 136.335 152.192ZM136.431 150.976C134.991 150.976 134.159 149.808 134.159 147.76C134.159 145.664 134.959 144.512 136.431 144.512C137.887 144.512 138.719 145.696 138.719 147.76C138.719 149.84 137.919 150.976 136.431 150.976ZM149.714 149.232H148.242C147.938 150.4 147.09 150.976 145.89 150.976C144.354 150.976 143.458 149.904 143.378 148H149.65V147.648C149.65 144.944 148.21 143.296 145.81 143.296C143.426 143.296 141.938 144.88 141.938 147.76C141.938 150.528 143.426 152.192 145.89 152.192C147.826 152.192 149.25 151.216 149.714 149.232ZM145.81 144.512C147.138 144.512 147.986 145.376 148.178 146.944H143.426C143.634 145.36 144.45 144.512 145.81 144.512ZM152.566 145.68C152.566 144.976 153.174 144.448 154.23 144.448C155.43 144.448 156.166 144.944 156.374 146.272H157.782C157.51 144.16 156.15 143.296 154.31 143.296C152.23 143.296 151.222 144.48 151.222 145.776C151.222 149.296 156.678 147.376 156.678 149.696C156.678 150.496 156.006 151.072 154.726 151.072C153.414 151.072 152.534 150.416 152.342 149.232H150.934C151.254 151.232 152.662 152.192 154.678 152.192C156.678 152.192 158.086 151.184 158.086 149.6C158.086 146.096 152.566 148.048 152.566 145.68ZM159.761 142.368H161.169V140.48H159.761V142.368ZM159.761 152H161.169V143.504H159.761V152ZM166.425 152.064C167.513 152.064 168.377 151.648 168.969 150.848V152.304C168.969 153.888 168.137 154.56 166.889 154.56C165.657 154.56 164.777 153.952 164.601 152.832H163.193C163.497 154.768 164.905 155.728 166.905 155.728C168.857 155.728 170.377 154.624 170.377 152.256V143.504H168.969V144.432C168.409 143.696 167.561 143.296 166.425 143.296C164.297 143.296 162.969 144.848 162.969 147.696C162.969 150.416 164.265 152.064 166.425 152.064ZM166.681 150.848C165.225 150.848 164.409 149.696 164.409 147.696C164.409 145.632 165.209 144.512 166.681 144.512C168.137 144.512 168.969 145.68 168.969 147.68C168.969 149.728 168.169 150.848 166.681 150.848ZM172.636 152H174.044V146.976C174.044 145.76 174.876 144.496 176.284 144.496C177.564 144.496 178.14 145.328 178.14 146.608V152H179.548V146.32C179.548 144.352 178.476 143.296 176.668 143.296C175.548 143.296 174.62 143.76 174.044 144.656V143.504H172.636V152ZM184.995 152H186.403V140.48H184.995V152ZM195.98 149.232H194.508C194.204 150.4 193.356 150.976 192.156 150.976C190.62 150.976 189.724 149.904 189.644 148H195.916V147.648C195.916 144.944 194.476 143.296 192.076 143.296C189.692 143.296 188.204 144.88 188.204 147.76C188.204 150.528 189.692 152.192 192.156 152.192C194.092 152.192 195.516 151.216 195.98 149.232ZM192.076 144.512C193.404 144.512 194.252 145.376 194.444 146.944H189.692C189.9 145.36 190.716 144.512 192.076 144.512ZM199.088 146.272C199.264 145.184 199.92 144.512 201.136 144.512C202.592 144.512 203.232 145.264 203.232 146.64V146.832C201.6 146.848 200.432 146.944 199.28 147.328C198.032 147.744 197.392 148.592 197.392 149.76C197.392 151.376 198.576 152.192 200.336 152.192C201.36 152.192 202.512 151.728 203.232 150.656C203.248 151.168 203.296 151.664 203.456 152H204.944C204.72 151.536 204.64 150.928 204.64 149.952V146.608C204.64 144.624 203.536 143.296 201.264 143.296C199.184 143.296 197.952 144.4 197.68 146.272H199.088ZM198.832 149.728C198.832 148.688 199.616 147.92 203.232 147.888V148.288C203.232 149.744 202.048 150.976 200.48 150.976C199.488 150.976 198.832 150.512 198.832 149.728ZM210.132 152.192C211.14 152.192 211.956 151.728 212.516 150.928V152H213.924V140.48H212.516V144.496C211.956 143.712 211.14 143.296 210.132 143.296C207.908 143.296 206.516 144.88 206.516 147.76C206.516 150.528 207.876 152.192 210.132 152.192ZM210.228 150.976C208.788 150.976 207.956 149.808 207.956 147.76C207.956 145.664 208.756 144.512 210.228 144.512C211.684 144.512 212.516 145.696 212.516 147.76C212.516 149.84 211.716 150.976 210.228 150.976Z" fill="#181818"/>
</g>
<defs>
<filter id="filter0_d_1_794" x="0" y="0" width="419" height="246" filterUnits="userSpaceOnUse" color-interpolation-filters="sRGB">
<feFlood flood-opacity="0" result="BackgroundImageFix"/>
<feColorMatrix in="SourceAlpha" type="matrix" values="0 0 0 0 0 0 0 0 0 0 0 0 0 0 0 0 0 0 127 0" result="hardAlpha"/>
<feOffset dy="26"/>
<feGaussianBlur stdDeviation="18"/>
<feComposite in2="hardAlpha" operator="out"/>
<feColorMatrix type="matrix" values="0 0 0 0 0 0 0 0 0 0 0 0 0 0 0 0 0 0 0.08 0"/>
<feBlend mode="normal" in2="BackgroundImageFix" result="effect1_dropShadow_1_794"/>
<feBlend mode="normal" in="SourceGraphic" in2="effect1_dropShadow_1_794" result="shape"/>
</filter>
</defs>
</svg>
